<?xml version="1.0" standalone="no"?>
<!DOCTYPE svg PUBLIC "-//W3C//DTD SVG 20010904//EN"
 "http://www.w3.org/TR/2001/REC-SVG-20010904/DTD/svg10.dtd">
<svg version="1.0" xmlns="http://www.w3.org/2000/svg"
 width="1000.000000pt" height="1000.000000pt" viewBox="0 0 1000.000000 1000.000000"
 preserveAspectRatio="xMidYMid meet">

<g transform="translate(0.000000,1000.000000) scale(0.100000,-0.100000)"
fill="#000000" stroke="none">
<path d="M5112 7948 c-19 -19 -15 -147 6 -187 29 -54 72 -71 174 -71 l88 0 0
-30 0 -30 -269 0 -269 0 -4 63 c-4 73 -29 116 -82 141 -30 14 -107 16 -706 16
-599 0 -676 -2 -706 -16 -53 -25 -78 -68 -82 -141 l-4 -63 -69 0 -69 0 0 53
c0 67 -25 115 -76 144 l-39 23 -675 0 -675 0 -39 -23 c-51 -29 -76 -77 -76
-144 l0 -53 -58 0 c-78 0 -199 -32 -275 -72 -80 -42 -193 -155 -235 -235 -18
-34 -41 -96 -52 -139 -20 -76 -20 -119 -20 -2179 0 -2060 0 -2103 20 -2179 28
-110 74 -190 155 -271 81 -81 161 -127 271 -155 76 -20 125 -20 3654 -20 3529
0 3578 0 3654 20 110 28 190 74 271 155 81 81 127 161 155 271 20 76 20 119
20 2179 0 2060 0 2103 -20 2179 -11 43 -34 105 -52 139 -42 80 -155 193 -235
235 -68 36 -195 72 -253 72 l-38 0 -4 63 c-4 73 -29 116 -82 141 -30 14 -107
16 -706 16 -599 0 -676 -2 -706 -16 -53 -25 -78 -68 -82 -141 l-4 -63 -259 0
-259 0 0 30 0 30 78 0 c135 0 182 45 182 175 0 42 -5 76 -12 83 -17 17 -1519
17 -1536 0z m1448 -111 c0 -13 -5 -28 -12 -35 -17 -17 -1319 -17 -1336 0 -7 7
-12 22 -12 35 l0 23 680 0 680 0 0 -23z m-3556 -103 c10 -9 16 -33 16 -60 l0
-44 -690 0 -690 0 0 44 c0 82 -50 76 690 76 585 0 660 -2 674 -16z m1720 0
c10 -9 16 -33 16 -60 l0 -44 -690 0 -690 0 0 44 c0 82 -50 76 690 76 585 0
660 -2 674 -16z m3660 0 c10 -9 16 -33 16 -60 l0 -44 -690 0 -690 0 0 44 c0
82 -50 76 690 76 585 0 660 -2 674 -16z m-2084 -84 c0 -20 -7 -20 -410 -20
-403 0 -410 0 -410 20 0 20 7 20 410 20 403 0 410 0 410 -20z m2323 -135 c184
-48 315 -179 362 -360 13 -52 15 -305 15 -2150 0 -2289 4 -2140 -58 -2265 -35
-70 -132 -167 -202 -202 -126 -63 170 -58 -3740 -58 -3910 0 -3614 -5 -3740
58 -70 35 -167 132 -202 202 -62 125 -58 -24 -58 2265 0 2289 -4 2141 58 2265
55 111 181 208 315 245 81 21 7166 22 7250 0z"/>
<path d="M2555 6721 c-47 -22 -89 -64 -105 -106 -14 -36 -240 -1318 -240
-1360 0 -16 9 -45 20 -63 39 -64 19 -63 778 -60 l687 3 38 23 c76 48 76 47
202 760 63 359 115 672 115 696 0 29 -7 52 -22 71 -44 56 -30 55 -760 55 -634
0 -675 -2 -713 -19z m1335 -89 c71 -35 73 -6 -46 -679 -70 -405 -113 -621
-125 -646 -11 -21 -34 -47 -52 -57 -31 -19 -54 -20 -664 -20 l-632 0 -28 24
c-25 22 -28 30 -26 83 1 64 196 1172 213 1219 6 16 19 37 28 48 40 45 44 45
687 46 561 0 613 -1 645 -18z"/>
<path d="M2821 6348 c-6 -29 -13 -70 -17 -90 l-6 -38 136 0 c75 0 136 -3 136
-7 0 -13 -121 -697 -126 -715 -5 -16 5 -18 113 -18 l118 0 65 370 65 369 140
3 140 3 16 88 16 87 -393 0 -393 0 -10 -52z"/>
<path d="M4395 6721 c-47 -22 -89 -64 -105 -106 -14 -36 -240 -1318 -240
-1360 0 -16 9 -45 20 -63 39 -64 19 -63 778 -60 l687 3 38 23 c76 48 76 47
202 760 63 359 115 672 115 696 0 29 -7 52 -22 71 -44 56 -30 55 -760 55 -634
0 -675 -2 -713 -19z m1335 -89 c71 -35 73 -6 -46 -679 -70 -405 -113 -621
-125 -646 -11 -21 -34 -47 -52 -57 -31 -19 -54 -20 -664 -20 l-632 0 -28 24
c-25 22 -28 30 -26 83 1 64 196 1172 213 1219 6 16 19 37 28 48 40 45 44 45
687 46 561 0 613 -1 645 -18z"/>
<path d="M4650 6393 c0 -3 -21 -122 -47 -262 -67 -370 -64 -465 15 -553 60
-66 149 -98 275 -98 180 1 322 71 407 201 49 76 64 132 119 444 l47 270 -109
3 c-60 1 -111 1 -113 0 -1 -2 -24 -125 -50 -273 -26 -149 -55 -294 -66 -323
-37 -100 -105 -152 -200 -152 -93 0 -148 55 -148 148 0 31 77 498 95 580 5 22
4 22 -110 22 -63 0 -115 -3 -115 -7z"/>
<path d="M6225 6721 c-47 -22 -89 -64 -105 -105 -22 -60 -241 -1330 -236
-1371 3 -29 14 -49 40 -72 l36 -33 694 0 c467 0 704 3 723 11 34 13 80 55 99
91 17 33 244 1310 244 1374 0 37 -6 51 -34 82 l-34 37 -694 2 c-658 3 -695 2
-733 -16z m1335 -89 c71 -35 73 -6 -46 -679 -70 -405 -113 -621 -125 -646 -11
-21 -34 -47 -52 -57 -31 -19 -54 -20 -664 -20 l-632 0 -28 24 c-25 22 -28 30
-26 83 1 64 196 1172 213 1219 6 16 19 37 28 48 40 45 44 45 687 46 561 0 613
-1 645 -18z"/>
<path d="M6656 6139 c-240 -288 -260 -316 -272 -368 -8 -31 -14 -59 -14 -63 0
-5 101 -8 225 -8 181 0 225 -3 225 -13 0 -8 -9 -63 -20 -123 -11 -60 -20 -112
-20 -116 0 -7 179 -12 180 -5 1 1 11 58 23 127 l23 125 66 3 66 3 11 63 c6 34
11 66 11 69 0 4 -29 7 -65 7 -63 0 -65 1 -60 23 3 12 25 139 50 282 25 143 48
270 50 283 5 22 4 22 -108 22 l-112 0 -259 -311z m239 -50 c-20 -107 -38 -204
-41 -216 -4 -22 -7 -23 -139 -23 l-135 0 127 153 c71 84 148 182 173 219 25
36 46 65 48 63 1 -1 -13 -90 -33 -196z"/>
<path d="M1685 4831 c-47 -22 -89 -64 -105 -106 -14 -36 -240 -1318 -240
-1360 0 -16 9 -45 20 -63 39 -64 19 -63 778 -60 l687 3 38 23 c76 48 76 47
202 760 63 359 115 672 115 696 0 29 -7 52 -22 71 -44 56 -30 55 -760 55 -634
0 -675 -2 -713 -19z m1335 -89 c71 -35 73 -6 -46 -679 -70 -405 -113 -621
-125 -646 -11 -21 -34 -47 -52 -57 -31 -19 -54 -20 -664 -20 l-632 0 -28 24
c-25 22 -28 30 -26 83 1 64 196 1172 213 1219 6 16 19 37 28 48 40 45 44 45
687 46 561 0 613 -1 645 -18z"/>
<path d="M2030 4500 c0 -12 -147 -853 -155 -888 l-5 -22 317 2 318 3 12 65
c21 111 42 100 -193 100 l-207 0 7 38 c3 20 12 70 18 110 l12 72 187 0 c170 0
188 2 193 18 6 20 26 132 26 144 0 4 -83 8 -185 8 -146 0 -185 3 -185 13 0 14
16 114 25 155 5 22 6 22 203 22 l198 0 12 70 c7 39 12 77 12 85 0 13 -42 15
-305 15 -202 0 -305 -3 -305 -10z"/>
<path d="M3505 4831 c-47 -22 -89 -64 -105 -106 -14 -36 -240 -1318 -240
-1360 0 -16 9 -45 20 -63 39 -64 19 -63 778 -60 l687 3 38 23 c76 48 76 47
202 760 63 359 115 672 115 696 0 29 -7 52 -22 71 -44 56 -30 55 -760 55 -634
0 -675 -2 -713 -19z m1335 -89 c71 -35 73 -6 -46 -679 -70 -405 -113 -621
-125 -646 -11 -21 -34 -47 -52 -57 -31 -19 -54 -20 -664 -20 l-632 0 -28 24
c-25 22 -28 30 -26 83 1 64 196 1172 213 1219 6 16 19 37 28 48 40 45 44 45
687 46 561 0 613 -1 645 -18z"/>
<path d="M3716 4483 c3 -16 40 -221 82 -458 l78 -430 135 -3 136 -3 233 428
c129 236 243 443 253 461 l19 32 -124 0 -123 0 -152 -302 c-83 -167 -159 -325
-169 -351 -22 -61 -34 -68 -34 -20 0 21 -19 181 -42 356 l-43 317 -127 0 -127
0 5 -27z"/>
<path d="M5335 4831 c-47 -22 -89 -64 -105 -106 -14 -36 -240 -1318 -240
-1360 0 -16 9 -45 20 -63 39 -64 19 -63 778 -60 l687 3 38 23 c76 48 76 47
202 760 63 359 115 672 115 696 0 29 -7 52 -22 71 -44 56 -30 55 -760 55 -634
0 -675 -2 -713 -19z m1335 -89 c71 -35 73 -6 -46 -679 -70 -405 -113 -621
-125 -646 -11 -21 -34 -47 -52 -57 -31 -19 -54 -20 -664 -20 l-632 0 -28 24
c-25 22 -28 30 -26 83 1 64 196 1172 213 1219 6 16 19 37 28 48 40 45 44 45
687 46 561 0 613 -1 645 -18z"/>
<path d="M5680 4500 c0 -12 -147 -853 -155 -888 l-5 -22 317 2 318 3 12 65
c21 111 42 100 -193 100 l-207 0 7 38 c3 20 12 70 18 110 l12 72 187 0 c170 0
188 2 193 18 6 20 26 132 26 144 0 4 -83 8 -185 8 -146 0 -185 3 -185 13 0 14
16 114 25 155 5 22 6 22 203 22 l198 0 12 70 c7 39 12 77 12 85 0 13 -42 15
-305 15 -202 0 -305 -3 -305 -10z"/>
<path d="M7165 4831 c-47 -22 -89 -64 -105 -106 -14 -36 -240 -1318 -240
-1360 0 -16 9 -45 20 -63 39 -64 19 -63 778 -60 l687 3 38 23 c76 48 76 47
202 760 63 359 115 672 115 696 0 29 -7 52 -22 71 -44 56 -30 55 -760 55 -634
0 -675 -2 -713 -19z m1335 -89 c71 -35 73 -6 -46 -679 -70 -405 -113 -621
-125 -646 -11 -21 -34 -47 -52 -57 -31 -19 -54 -20 -664 -20 l-632 0 -28 24
c-25 22 -28 30 -26 83 1 64 196 1172 213 1219 6 16 19 37 28 48 40 45 44 45
687 46 561 0 613 -1 645 -18z"/>
<path d="M7567 4500 c-43 -4 -82 -12 -86 -16 -5 -5 -41 -196 -80 -424 -40
-228 -75 -427 -78 -442 l-5 -28 114 0 114 0 27 163 c39 222 27 201 103 194
112 -11 128 -31 144 -188 5 -57 13 -119 16 -136 l6 -33 120 0 c120 0 120 0
115 23 -3 12 -13 76 -22 142 -20 152 -38 207 -77 240 -17 14 -29 27 -27 29 2
2 20 11 39 21 108 54 170 144 170 246 0 156 -120 221 -402 218 -62 -1 -148 -5
-191 -9z m285 -150 c53 -15 81 -54 75 -107 -10 -90 -73 -134 -204 -141 -76 -4
-83 -3 -83 14 0 30 36 220 44 232 9 15 118 16 168 2z"/>
</g>
</svg>
